<svg width="42" height="42" viewBox="0 0 42 42" fill="none" xmlns="http://www.w3.org/2000/svg">
<path fill-rule="evenodd" clip-rule="evenodd" d="M22.8799 22.5793L25.2048 23.2038C28.348 24.0481 31.8253 23.2334 34.2787 20.7799C37.9399 17.1188 37.9399 11.1828 34.2787 7.52168C30.6176 3.86052 24.6816 3.86052 21.0205 7.52168C18.7898 9.7524 17.9146 12.8256 18.4076 15.731L18.7677 17.8526L13.7705 22.8498L13.7705 28.2369L10.8242 28.2369V31.1832L5.43716 31.1832L4.35479 32.2655L4.27295 36.7668L8.7742 36.6849L22.8799 22.5793ZM10.5314 40.8204L0.0284192 41.0113L0.219381 30.5084L3.71127 27.0165H6.65754L6.65755 24.0702H9.60382V21.1239L14.2997 16.4281C13.5905 12.2489 14.8486 7.80097 18.0742 4.5754C23.3625 -0.712946 31.9367 -0.712946 37.225 4.5754C42.5133 9.86375 42.5134 18.4379 37.225 23.7262C33.6758 27.2754 28.6466 28.4426 24.1239 27.2278L10.5314 40.8204Z" fill="white"/>
</svg>
